<svg width="70" height="69" viewBox="0 0 70 69" fill="none" xmlns="http://www.w3.org/2000/svg">
<rect width="70" height="69" rx="34.5" fill="white"/>
<rect x="1.5" y="1.5" width="67" height="66" rx="33" stroke="#FF8400" stroke-opacity="0.26" stroke-width="3"/>
<path d="M21.1161 46.1161C20.628 46.6043 20.628 47.3957 21.1161 47.8839C21.6043 48.372 22.3957 48.372 22.8839 47.8839L21.1161 46.1161ZM51.25 19C51.25 18.3096 50.6904 17.75 50 17.75H38.75C38.0596 17.75 37.5 18.3096 37.5 19C37.5 19.6904 38.0596 20.25 38.75 20.25H48.75V30.25C48.75 30.9404 49.3096 31.5 50 31.5C50.6904 31.5 51.25 30.9404 51.25 30.25V19ZM22 47L22.8839 47.8839L50.8839 19.8839L50 19L49.1161 18.1161L21.1161 46.1161L22 47Z" fill="#FF8400"/>
</svg>
