<svg width="611" height="810" viewBox="0 0 611 810" fill="none" xmlns="http://www.w3.org/2000/svg">
<g clip-path="url(#clip0_108_14475)">
<rect width="611" height="810" rx="40" fill="white"/>
<g opacity="0.4" filter="url(#filter0_f_108_14475)">
<ellipse cx="438.357" cy="872.429" rx="488.357" ry="260.571" fill="url(#paint0_linear_108_14475)"/>
</g>
<path d="M115.857 415C115.857 402.85 125.707 393 137.857 393H551.772C563.922 393 573.772 402.85 573.772 415V443.974H115.857V415Z" fill="#EDEEED" fill-opacity="0.62"/>
<rect x="118.357" y="395.5" width="456.313" height="306.79" rx="19.5" stroke="#D9D9D9" stroke-width="5"/>
<rect x="159.137" y="488.953" width="35.7791" height="35.7791" rx="2.5" fill="#EDEDED" fill-opacity="0.69" stroke="#D9D9D9" stroke-width="5"/>
<rect x="159.137" y="550.969" width="35.7791" height="35.7791" rx="2.5" fill="#EDEDED" fill-opacity="0.69" stroke="#D9D9D9" stroke-width="5"/>
<rect x="159.137" y="618.086" width="35.7791" height="35.7791" rx="2.5" fill="#EDEDED" fill-opacity="0.69" stroke="#D9D9D9" stroke-width="5"/>
<rect x="221.204" y="486.453" width="251.471" height="12.7435" rx="6.37173" fill="#EDEDED"/>
<rect x="221.204" y="514.487" width="171.612" height="12.7435" rx="6.37173" fill="#FFAC5C"/>
<rect x="221.204" y="581.603" width="171.612" height="12.7435" rx="6.37173" fill="#FFAC5C"/>
<rect x="221.204" y="646.17" width="171.612" height="12.7435" rx="6.37173" fill="#FFAC5C"/>
<rect x="221.204" y="556.118" width="251.471" height="12.7435" rx="6.37173" fill="#EDEDED"/>
<rect x="221.204" y="620.685" width="251.471" height="12.7435" rx="6.37173" fill="#EDEDED"/>
<path d="M166.406 637.764L170.81 643.559C171.177 644.041 171.885 644.089 172.314 643.661L188.495 627.479" stroke="#6E6E6E" stroke-width="5" stroke-linecap="round"/>
<path d="M167.257 570.648L171.661 576.443C172.028 576.925 172.736 576.973 173.164 576.545L189.345 560.363" stroke="#6E6E6E" stroke-width="5" stroke-linecap="round"/>
<path d="M166.406 508.629L170.81 514.424C171.177 514.906 171.885 514.954 172.314 514.526L188.495 498.345" stroke="#6E6E6E" stroke-width="5" stroke-linecap="round"/>
<circle cx="149.569" cy="421.683" r="8.56547" fill="#BBBBBB"/>
<circle cx="177.407" cy="421.683" r="8.56547" fill="#BBBBBB"/>
<circle cx="205.245" cy="421.683" r="8.56547" fill="#BBBBBB"/>
<rect x="434.266" y="596.677" width="205.925" height="153.461" rx="7.5" fill="white" stroke="#D9D9D9" stroke-width="5"/>
<rect x="448.156" y="700.033" width="77.9559" height="6.28677" rx="3.14338" fill="#FFAC5C"/>
<rect x="542.046" y="710.881" width="27.8378" height="6.4241" rx="3.21205" fill="#FFAC5C"/>
<rect x="448.111" y="723.685" width="27.6618" height="6.28677" rx="3.14338" fill="#FFAC5C"/>
<rect x="448.156" y="686.203" width="113.162" height="6.28677" rx="3.14338" fill="#EFEEED"/>
<rect x="448.156" y="711.349" width="93.0442" height="6.28677" rx="3.14338" fill="#EFEEED"/>
<rect x="527.057" y="699.105" width="55.6756" height="6.4241" rx="3.21205" fill="#EFEEED"/>
<rect x="482.088" y="723.73" width="97.4322" height="6.4241" rx="3.21205" fill="#EFEEED"/>
<rect x="514.208" y="614.521" width="108.139" height="54.6049" rx="10" fill="#D9D9D9" fill-opacity="0.33"/>
<path d="M534.552 626.297L558.871 637.346C560.348 638.018 560.454 640.076 559.053 640.894L534.552 655.206" stroke="#6E6E6E" stroke-opacity="0.63" stroke-width="6" stroke-linecap="round"/>
<path d="M572.025 655.206H605.217" stroke="#6E6E6E" stroke-opacity="0.63" stroke-width="6" stroke-linecap="round"/>
<path d="M112.262 522.023C104.052 500.592 87.2144 480.569 57.908 473.965L56.4592 473.652L56.4287 473.645L56.3976 473.64C52.7141 472.957 49.2023 474.847 47.6802 478.21L47.539 478.54L47.5337 478.554L47.5274 478.569C39.7935 498.375 40.0698 517.925 48.5279 536.401L48.5291 536.4C50.9319 541.853 54.1076 547.064 57.7406 552.045C53.6045 559.037 52.4024 567.243 54.3671 575.587L54.3659 575.587C56.3411 584.101 61.4219 592.312 68.5298 598.688C69.4951 599.681 70.6705 600.182 71.6029 600.455C73.632 601.048 75.7504 600.832 77.6549 599.774L77.7118 599.743L77.7667 599.708C80.3901 598.098 81.9695 594.901 81.4541 591.698L81.3983 591.388C79.8614 583.766 82.8211 577.061 87.8626 574.261L87.8623 574.262L88.0118 574.178L95.4493 570.047C94.2186 571.589 93.2954 573.345 92.7356 575.261C91.9297 578.019 91.6173 582.253 94.0608 587.074L94.3055 587.542C96.5471 591.692 100.588 594.56 104.046 596.424C107.571 598.324 110.905 599.4 112.227 599.786L112.342 599.82C116.501 601.035 120.834 598.587 122.04 594.461C122.373 593.321 123.311 589.884 123.672 585.779C124.013 581.889 123.882 576.935 121.792 572.774L121.583 572.374C119.85 569.078 116.942 566.153 113.202 564.702C111.163 563.911 108.941 563.586 106.632 563.836L114.309 559.572C119.333 556.781 126.454 557.856 131.936 563.252L131.937 563.251C134.228 565.51 137.86 566.266 140.9 564.641L140.901 564.642C144.037 563.06 145.538 559.778 145.133 556.528L145.128 556.488L145.121 556.447C143.672 546.926 139.701 538.131 133.514 531.77L133.511 531.767L132.903 531.158C127.113 525.501 119.903 522.33 112.262 522.023ZM69.0939 565.256C69.9682 566.076 70.8595 566.887 71.7711 567.681C70.8417 568.883 69.9998 570.159 69.252 571.501C68.8311 569.372 68.767 567.271 69.0939 565.256ZM59.824 490.769C87.908 499.83 100.22 525.636 102.381 548.189L84.7684 557.973C72.566 548.016 50.5329 524.583 59.824 490.769ZM116.831 538.949C118.607 539.748 120.252 540.913 121.746 542.382C120.29 542.311 118.831 542.353 117.383 542.513C117.22 541.336 117.038 540.148 116.831 538.949ZM74.995 502.741C72.2654 501.944 69.2388 502.28 66.7447 503.665L66.2839 503.936C64.0194 505.35 62.31 507.613 61.5619 510.174C60.8138 512.734 61.0357 515.562 62.1828 517.972L62.4251 518.449C63.781 520.959 66.1506 522.872 68.8803 523.669C71.4211 524.412 74.3745 524.317 76.983 522.833L77.2346 522.686C79.6133 521.237 81.497 519.031 82.3134 516.237C83.1114 513.506 82.8052 510.47 81.4502 507.962L81.1847 507.498C79.7972 505.217 77.5542 503.489 74.995 502.741Z" fill="#FFAC5C" stroke="white" stroke-width="6"/>
</g>
<defs>
<filter id="filter0_f_108_14475" x="-475.5" y="186.359" width="1827.71" height="1372.14" filterUnits="userSpaceOnUse" color-interpolation-filters="sRGB">
<feFlood flood-opacity="0" result="BackgroundImageFix"/>
<feBlend mode="normal" in="SourceGraphic" in2="BackgroundImageFix" result="shape"/>
<feGaussianBlur stdDeviation="212.75" result="effect1_foregroundBlur_108_14475"/>
</filter>
<linearGradient id="paint0_linear_108_14475" x1="438.357" y1="611.859" x2="438.357" y2="1133" gradientUnits="userSpaceOnUse">
<stop stop-color="#FFF6E9"/>
<stop offset="1" stop-color="#FFDCA9"/>
</linearGradient>
<clipPath id="clip0_108_14475">
<rect width="611" height="810" rx="40" fill="white"/>
</clipPath>
</defs>
</svg>
