<svg width="583" height="428" viewBox="0 0 583 428" fill="none" xmlns="http://www.w3.org/2000/svg">
<g clip-path="url(#clip0_123_389)">
<rect width="583" height="428" rx="24" fill="#FFFCFA"/>
<rect x="300.739" y="363.274" width="110.255" height="68.0319" transform="rotate(-11.318 300.739 363.274)" fill="white" stroke="#FFC07D"/>
<path d="M369.083 401.875C367.172 404.612 363.441 405.359 360.621 403.568L292.055 359.998L309.867 448.996L433.41 424.269L415.598 335.271L369.083 401.875Z" fill="white" stroke="#FFC07D" stroke-width="3" stroke-linecap="round" stroke-linejoin="round"/>
<path d="M433.409 424.269L309.866 448.996L348.925 407.507C357.241 398.672 370.314 396.056 381.39 401.009L433.409 424.269Z" fill="white" stroke="#FFC07D" stroke-width="3" stroke-linecap="round" stroke-linejoin="round"/>
<path d="M415.55 335L292.001 359.728L347.296 399.347C359.069 407.784 372.143 405.167 379.763 392.849L415.55 335Z" fill="white" stroke="#FFC07D" stroke-width="3" stroke-linecap="round" stroke-linejoin="round"/>
<path d="M401 292.411L488.558 208.585C492.159 205.138 497.836 205.138 501.433 208.585L588.991 292.411L530.179 411.781H457.713L401 292.411Z" fill="#FFECDE" stroke="#FFC07D" stroke-width="3" stroke-linecap="round" stroke-linejoin="round"/>
<path d="M432.846 220.652H535.971L557.144 239.078V377.614H432.846V220.652Z" fill="white" stroke="#C0C0C0" stroke-width="3" stroke-linecap="round" stroke-linejoin="round"/>
<path d="M535.967 239.078H557.143L535.967 220.652V239.078Z" fill="white" stroke="#C0C0C0" stroke-width="3" stroke-linecap="round" stroke-linejoin="round"/>
<path d="M501.433 376.234C497.836 379.679 492.159 379.679 488.558 376.234L401 292.411V427.835H588.99V292.411L501.433 376.234Z" fill="#FFECDE" stroke="#FFC07D" stroke-width="3" stroke-linecap="round" stroke-linejoin="round"/>
<path d="M588.99 427.835H401L470.294 378.572C485.048 368.082 504.941 368.082 519.695 378.572L588.99 427.835Z" fill="#FFECDE" stroke="#FFC07D" stroke-width="3" stroke-linecap="round" stroke-linejoin="round"/>
<path d="M529.063 294.297C528.798 300.443 527.031 305.739 523.757 310.177C520.486 314.617 515.593 316.837 509.082 316.837C506.93 316.837 505.072 316.24 503.514 315.047C501.951 313.858 500.83 312.166 500.153 309.983C498.68 312.283 496.882 314 494.761 315.135C492.638 316.269 490.163 316.837 487.334 316.837C483.649 316.837 480.79 315.105 478.758 311.643C476.724 308.181 475.973 303.634 476.503 298.002C477.181 290.561 479.206 284.592 482.581 280.094C485.955 275.598 490.073 273.35 494.935 273.35C498.031 273.35 500.52 273.722 502.406 274.471C504.293 275.218 506.341 276.367 508.551 277.917L508.374 278.091H508.64L506.385 303.302C506.12 306.464 506.436 308.641 507.336 309.832C508.233 311.025 509.435 311.621 510.939 311.621C514.562 311.621 517.464 309.993 519.646 306.738C521.826 303.481 523.035 299.345 523.27 294.324C523.742 283.365 521.619 274.824 516.905 268.7C512.189 262.575 504.882 259.515 494.98 259.515C485.903 259.515 478.603 262.829 473.078 269.456C467.552 276.087 464.568 284.725 464.126 295.373C463.595 306.163 465.805 314.694 470.756 320.963C475.707 327.234 482.809 330.371 492.062 330.371C494.655 330.371 497.285 330.06 499.953 329.441C502.62 328.825 504.866 328.013 506.694 327.006L508.374 331.618C506.4 332.824 503.888 333.765 500.837 334.44C497.788 335.115 494.804 335.455 491.886 335.455C480.688 335.455 472.031 331.869 465.916 324.7C459.801 317.531 457.009 307.74 457.54 295.329C458.099 283.175 461.769 273.29 468.546 265.677C475.323 258.063 484.195 254.255 495.157 254.255C506.326 254.255 514.893 257.846 520.862 265.029C526.831 272.214 529.563 281.969 529.063 294.297ZM484.328 298.002C484.004 302.082 484.32 305.186 485.279 307.312C486.236 309.437 487.805 310.5 489.986 310.5C491.871 310.5 493.595 310.15 495.158 309.444C496.719 308.74 498.149 307.483 499.445 305.673C499.416 305.329 499.409 304.963 499.424 304.575C499.438 304.186 499.474 303.762 499.534 303.302L501.611 280.116C500.843 279.771 500.042 279.499 499.202 279.298C498.361 279.097 497.486 278.996 496.571 278.996C492.887 278.996 490.073 280.569 488.128 283.715C486.185 286.86 484.918 291.623 484.328 298.002Z" fill="#FFA74F"/>
</g>
<defs>
<clipPath id="clip0_123_389">
<rect width="583" height="428" rx="24" fill="white"/>
</clipPath>
</defs>
</svg>
